Fly_normalized_Motion_pl03
version=1
nRows=16
nColumns=43
inDegrees=yes
endheader
time		pelvis_tilt		pelvis_list		pelvis_rotation		pelvis_tx		pelvis_ty		pelvis_tz		hip_flexion_r		hip_adduction_r		hip_rotation_r		knee_angle_r		ankle_angle_r		subtalar_angle_r		mtp_angle_r		hip_flexion_l		hip_adduction_l		hip_rotation_l		knee_angle_l		ankle_angle_l		subtalar_angle_l		mtp_angle_l		lumbar_extension		lumbar_bending		lumbar_rotation		neck_flexion		neck_lateral_bending		neck_rotation		arm_flex_r		arm_add_r		arm_rot_r		elbow_flex_r		pro_sup_r		wrist_flex_r		wrist_dev_r		hand_finger_flex_r		arm_flex_l		arm_add_l		arm_rot_l		elbow_flex_l		pro_sup_l		wrist_flex_l		wrist_dev_l		hand_finger_flex_l		
0.622500		-2.692299		-9.019934		86.151815		0.019949		1.912691		1.465670		40.556839		-8.642010		6.749822		-106.284257		-9.828294		-12.402900		22.067446		40.070092		-2.079414		-1.955239		-109.921262		-15.432924		-11.003073		22.702201		-45.929970		-3.834127		3.569508		9.730102		-0.161710		-2.067155		122.559482		-14.077084		44.041879		52.738569		80.385634		-27.031567		0.066546		32.875797		114.435307		-8.204819		26.227446		61.380650		102.351357		-16.707506		11.746310		65.873907		
0.626869		-2.778033		-8.736792		86.003805		0.019734		1.913210		1.458802		41.004922		-8.559611		6.797220		-106.377125		-10.217655		-13.319698		21.612383		40.389726		-1.920465		-2.432709		-110.059817		-14.486499		-10.907377		22.671718		-46.275901		-3.949838		3.555210		9.777535		-0.208340		-2.062775		122.026108		-14.229449		44.089704		52.853363		80.564192		-26.812407		-0.011266		33.115832		113.877675		-8.606744		26.541143		61.420823		102.701851		-16.598738		11.720457		65.989422		
0.631237		-2.957708		-8.524465		85.673707		0.019949		1.913507		1.452098		41.673780		-8.397981		6.934159		-106.490534		-11.059044		-14.980444		20.683781		40.793681		-1.842497		-3.052195		-110.125496		-13.424362		-10.321229		22.484197		-46.546501		-4.282181		3.524471		9.807861		-0.244424		-1.963035		121.351404		-14.293769		43.857208		52.909996		80.948728		-26.542586		-0.196980		33.563974		113.255144		-9.056572		26.806731		61.538959		103.445778		-16.644587		11.731995		66.159051		
0.635606		-2.954379		-8.170390		85.637671		0.019650		1.913964		1.445087		42.014540		-8.334455		6.825801		-106.556783		-11.169118		-15.279013		20.486873		41.130365		-1.714347		-3.360933		-110.161898		-12.971146		-10.300550		22.458764		-47.002288		-4.267619		3.512918		9.852740		-0.409322		-1.894948		120.692872		-14.641711		43.960472		53.300029		81.056444		-26.406195		-0.306859		33.718308		112.554820		-9.499862		27.040049		61.728152		103.642499		-16.627650		11.747749		66.226735		
0.639975		-3.025011		-7.849326		85.543889		0.019433		1.914168		1.438180		42.466127		-8.289550		6.759610		-106.649640		-11.309206		-15.829325		20.213312		41.520667		-1.565769		-3.744417		-110.173130		-12.442486		-10.251238		22.421369		-47.442964		-4.335012		3.435663		9.978868		-0.601040		-1.819162		120.010070		-14.923966		44.007551		53.622974		81.200858		-26.291527		-0.420002		33.889085		111.817610		-9.994756		27.246999		61.949082		103.999316		-16.726024		11.780472		66.249395		
0.644343		-2.985371		-7.433029		85.491624		0.018926		1.914239		1.431543		42.882204		-8.163351		6.692270		-106.804008		-11.322744		-15.978572		20.140487		41.900572		-1.406207		-3.939335		-110.158057		-12.376371		-10.227769		22.402382		-48.006768		-4.269451		3.441407		10.147455		-0.606072		-1.807002		119.477014		-15.068225		44.128458		53.588222		81.243978		-26.250719		-0.406951		33.938809		111.200411		-10.319520		27.366781		61.730049		104.120774		-16.744580		11.842304		66.250930		
0.648712		-3.336344		-7.351211		85.118922		0.018977		1.913693		1.424990		43.868809		-8.072779		6.938731		-106.968719		-11.837764		-17.471561		18.975293		42.605943		-1.205630		-4.666026		-109.986227		-12.290262		-10.450700		21.930820		-48.210425		-4.690931		3.210202		10.320465		-0.828900		-1.601064		118.615609		-15.108397		43.790417		53.729787		81.976766		-26.254038		-0.541242		34.340805		110.287611		-10.937509		27.472499		62.156231		105.649142		-17.362904		12.039694		66.151063		
0.653081		-3.280258		-6.909057		85.112377		0.018785		1.913480		1.418244		44.264679		-7.888876		6.783752		-107.084530		-11.813683		-17.457755		18.912129		42.963108		-1.143742		-4.814169		-109.822212		-12.388105		-10.491438		21.879659		-48.804889		-4.630335		3.183827		10.475405		-0.881150		-1.572669		117.975301		-15.383968		43.956863		53.771216		82.033002		-26.194987		-0.534085		34.394615		109.592505		-11.282683		27.597671		61.926650		105.711256		-17.315519		12.097945		66.184927		
0.657449		-3.232027		-6.711377		85.061290		0.018574		1.912916		1.411525		44.933820		-7.619920		6.637584		-107.118310		-11.735023		-17.480158		17.522715		43.659496		-1.141598		-5.195231		-109.565215		-13.571043		-12.400287		20.788387		-49.168403		-4.574909		3.190518		10.526239		-1.100116		-1.384986		117.032257		-15.706436		43.667992		54.144053		83.283068		-26.186505		-0.541418		34.744269		108.589867		-11.669019		27.384038		62.143286		106.942999		-17.142168		12.234045		66.467585		
0.661818		-3.138530		-6.287918		85.058480		0.018619		1.912546		1.404825		45.366726		-7.323435		6.436273		-107.133009		-11.725160		-17.366676		17.350963		44.031687		-1.198730		-5.333063		-109.206214		-13.990873		-12.531308		20.581839		-49.821818		-4.514771		3.149379		10.854920		-1.152959		-1.321804		116.277478		-16.037730		43.666579		54.326180		83.418691		-26.151054		-0.591981		34.801646		107.800801		-12.069299		27.393405		62.086261		107.057363		-17.071179		12.253200		66.524996		
0.666187		-3.051455		-5.855139		85.086978		0.018661		1.911882		1.398202		45.816714		-7.043432		6.221662		-107.147663		-11.723309		-17.273038		17.279073		44.391557		-1.249452		-5.453591		-108.800806		-14.224312		-12.667860		20.462423		-50.456311		-4.454300		3.081323		11.132921		-1.171336		-1.286850		115.536066		-16.331522		43.764047		54.280856		83.499031		-26.121239		-0.576021		34.832552		107.031464		-12.421879		27.468602		61.830228		107.134739		-17.016196		12.310677		66.554428		
0.670556		-2.688035		-5.565447		85.213349		0.018632		1.911060		1.391426		46.304107		-6.572417		5.749005		-107.024164		-11.585304		-16.654486		16.769364		45.002989		-1.518623		-5.542601		-108.368101		-15.800080		-15.176892		19.181484		-50.959473		-4.110512		3.175636		11.297044		-1.187603		-1.071560		114.430333		-16.580647		43.227330		54.458422		84.733983		-26.053495		-0.569504		34.952324		105.979288		-12.746941		27.157849		61.895504		108.097753		-16.810742		12.601407		66.711278		
0.674924		-2.534389		-5.134829		85.239533		0.018862		1.910334		1.384584		46.741239		-6.207091		5.484980		-106.893381		-11.761210		-16.270154		16.705177		45.350487		-1.698278		-5.620386		-107.757351		-16.483858		-15.439173		18.869286		-51.645280		-4.015017		3.149823		11.628550		-1.209050		-0.986895		113.444328		-16.990353		43.044396		54.706322		84.910047		-26.050021		-0.658702		34.979795		105.037982		-13.179006		27.113558		61.884667		108.209828		-16.749844		12.670322		66.766381		
0.679293		-2.292097		-4.818675		85.379891		0.018828		1.909079		1.377902		47.271012		-5.842493		5.101174		-106.748217		-11.576446		-15.679744		16.665035		45.884928		-1.832682		-5.597695		-107.118284		-17.533256		-17.074287		17.896932		-52.168390		-3.759802		3.135932		11.840846		-1.189611		-0.882573		112.364111		-17.243677		42.671712		54.627960		85.863086		-25.910595		-0.576184		35.044875		104.036199		-13.494063		26.961463		61.697107		108.737970		-16.533800		13.075240		66.920669		
0.683662		-2.173366		-4.437647		85.457529		0.018935		1.907726		1.371246		47.807228		-5.529003		4.818858		-106.604700		-11.532587		-15.387076		16.651760		46.277066		-1.918837		-5.602795		-106.346158		-18.016008		-17.685431		17.482117		-52.773030		-3.641435		3.056733		12.105676		-1.197910		-0.840011		111.406382		-17.579328		42.621575		54.472585		86.243839		-25.831080		-0.512725		35.080821		103.104120		-13.857317		26.976101		61.388984		108.950251		-16.411678		13.283673		66.997365		
0.688030		-1.938863		-4.025621		85.492816		0.019257		1.906586		1.364341		48.244078		-5.048701		4.529163		-106.273688		-11.826663		-14.787003		16.657700		46.623161		-2.170320		-5.518904		-105.475174		-19.032721		-18.022699		17.128480		-53.466330		-3.497350		3.103090		12.427674		-1.217026		-0.730746		110.147333		-18.087154		42.230654		54.796758		86.421629		-25.956628		-0.678589		35.047300		101.999528		-14.345338		26.918357		61.438496		109.018527		-16.273253		13.420957		67.135358		
